<mxfile host="www.draw.io" modified="2023-04-05T04:20:52.738Z" agent="Mozilla/5.0 (Windows NT 10.0; Win64; x64) AppleWebKit/537.36 (KHTML, like Gecko) Chrome/111.0.0.0 Safari/537.36" etag="eLIS3p00_EPtDQMKlnGA" version="21.1.4" type="device">
  <diagram name="Page-1" id="3179qiGblLMjKhiJORbQ">
    <mxGraphModel dx="921" dy="989" grid="0" gridSize="10" guides="1" tooltips="1" connect="1" arrows="1" fold="1" page="0" pageScale="1" pageWidth="850" pageHeight="1100" math="0" shadow="0">
      <root>
        <mxCell id="0" />
        <mxCell id="1" parent="0" />
        <mxCell id="0cmtN2qImXpsT-imrRJY-4" value="ε,ε-&amp;gt;$" style="edgeStyle=none;curved=1;rounded=0;orthogonalLoop=1;jettySize=auto;html=1;fontSize=12;startSize=8;endSize=8;" parent="1" source="0cmtN2qImXpsT-imrRJY-2" target="0cmtN2qImXpsT-imrRJY-3" edge="1">
          <mxGeometry relative="1" as="geometry" />
        </mxCell>
        <mxCell id="0cmtN2qImXpsT-imrRJY-2" value="qs" style="ellipse;whiteSpace=wrap;html=1;aspect=fixed;fontSize=16;" parent="1" vertex="1">
          <mxGeometry x="-13" y="80" width="80" height="80" as="geometry" />
        </mxCell>
        <mxCell id="0cmtN2qImXpsT-imrRJY-6" value="ε,$-&amp;gt;ε" style="edgeStyle=none;curved=1;rounded=0;orthogonalLoop=1;jettySize=auto;html=1;fontSize=12;startSize=8;endSize=8;" parent="1" source="0cmtN2qImXpsT-imrRJY-3" target="0cmtN2qImXpsT-imrRJY-5" edge="1">
          <mxGeometry relative="1" as="geometry" />
        </mxCell>
        <mxCell id="0cmtN2qImXpsT-imrRJY-3" value="qloop" style="ellipse;whiteSpace=wrap;html=1;aspect=fixed;fontSize=16;" parent="1" vertex="1">
          <mxGeometry x="143" y="80" width="80" height="80" as="geometry" />
        </mxCell>
        <mxCell id="0cmtN2qImXpsT-imrRJY-5" value="qaccept" style="ellipse;whiteSpace=wrap;html=1;aspect=fixed;fontSize=16;" parent="1" vertex="1">
          <mxGeometry x="143" y="229" width="80" height="80" as="geometry" />
        </mxCell>
        <mxCell id="0cmtN2qImXpsT-imrRJY-10" style="edgeStyle=none;curved=1;rounded=0;orthogonalLoop=1;jettySize=auto;html=1;exitX=0.5;exitY=0;exitDx=0;exitDy=0;entryX=1;entryY=0.5;entryDx=0;entryDy=0;fontSize=12;startSize=8;endSize=8;" parent="1" source="0cmtN2qImXpsT-imrRJY-3" target="0cmtN2qImXpsT-imrRJY-3" edge="1">
          <mxGeometry relative="1" as="geometry">
            <Array as="points">
              <mxPoint x="172" y="3" />
              <mxPoint x="261" y="28" />
              <mxPoint x="264" y="86" />
            </Array>
          </mxGeometry>
        </mxCell>
        <mxCell id="0cmtN2qImXpsT-imrRJY-11" value="ε, S-&amp;gt;H&lt;br&gt;ε, H-&amp;gt;h&lt;br&gt;ε, H-&amp;gt;hJG&lt;br&gt;ε, G-&amp;gt;g&lt;br&gt;ε, G-&amp;gt;Sg&lt;br&gt;ε, G-&amp;gt;HJg&lt;br&gt;ε, J-&amp;gt;j&lt;br&gt;ε, J-&amp;gt;H&lt;br&gt;ε, J-&amp;gt;jJ&lt;br&gt;h, h-&amp;gt;ε&lt;br&gt;g, g-&amp;gt;ε&lt;br&gt;j, j-&amp;gt;ε" style="text;html=1;align=center;verticalAlign=middle;resizable=0;points=[];autosize=1;strokeColor=none;fillColor=none;fontSize=16;" parent="1" vertex="1">
          <mxGeometry x="258" y="-82" width="90" height="242" as="geometry" />
        </mxCell>
        <mxCell id="0cmtN2qImXpsT-imrRJY-12" value="S-&amp;gt;H&lt;br&gt;H-&amp;gt;h | hJG&lt;br&gt;G-&amp;gt;g| Sg | HJg&lt;br&gt;J-&amp;gt; j | H | jJ" style="text;html=1;align=center;verticalAlign=middle;resizable=0;points=[];autosize=1;strokeColor=none;fillColor=none;fontSize=16;" parent="1" vertex="1">
          <mxGeometry x="-35" y="-79" width="124" height="89" as="geometry" />
        </mxCell>
      </root>
    </mxGraphModel>
  </diagram>
</mxfile>
